<?xml version="1.0" encoding="UTF-8" standalone="no"?>
<!DOCTYPE svg PUBLIC "-//W3C//DTD SVG 1.1//EN"
 "http://www.w3.org/Graphics/SVG/1.1/DTD/svg11.dtd">
<!-- Generated by graphviz version 2.43.0 (0)
 -->
<!-- Title: %3 Pages: 1 -->
<svg width="2152pt" height="560pt"
 viewBox="0.00 0.00 2152.00 560.00" xmlns="http://www.w3.org/2000/svg" xmlns:xlink="http://www.w3.org/1999/xlink">
<g id="graph0" class="graph" transform="scale(1 1) rotate(0) translate(4 556)">
<title>%3</title>
<polygon fill="white" stroke="transparent" points="-4,4 -4,-556 2148,-556 2148,4 -4,4"/>
<!-- fake -->
<g id="node1" class="node">
<title>fake</title>
</g>
<!-- 0 -->
<g id="node2" class="node">
<title>0</title>
<ellipse fill="none" stroke="black" cx="1763" cy="-461" rx="27" ry="18"/>
<text text-anchor="middle" x="1763" y="-457.3" font-family="Times,serif" font-size="14.00">0</text>
</g>
<!-- fake&#45;&gt;0 -->
<g id="edge1" class="edge">
<title>fake&#45;&gt;0</title>
<path fill="none" stroke="black" stroke-width="2" d="M1763,-515.81C1763,-507.79 1763,-498.05 1763,-489.07"/>
<polygon fill="black" stroke="black" stroke-width="2" points="1766.5,-489.03 1763,-479.03 1759.5,-489.03 1766.5,-489.03"/>
</g>
<!-- 0&#45;&gt;0 -->
<g id="edge26" class="edge">
<title>0&#45;&gt;0</title>
<path fill="none" stroke="black" d="M1788.44,-467.69C1799.03,-468.15 1808,-465.92 1808,-461 1808,-457.77 1804.14,-455.7 1798.49,-454.79"/>
<polygon fill="black" stroke="black" points="1798.6,-451.29 1788.44,-454.31 1798.27,-458.28 1798.6,-451.29"/>
<text text-anchor="middle" x="1847" y="-457.3" font-family="Times,serif" font-size="14.00">frozenset()</text>
</g>
<!-- 1 -->
<g id="node3" class="node">
<title>1</title>
<ellipse fill="none" stroke="black" cx="355" cy="-374" rx="27" ry="18"/>
<text text-anchor="middle" x="355" y="-370.3" font-family="Times,serif" font-size="14.00">1</text>
</g>
<!-- 0&#45;&gt;1 -->
<g id="edge4" class="edge">
<title>0&#45;&gt;1</title>
<path fill="none" stroke="black" d="M1736.13,-458.38C1561.98,-447.86 594.01,-389.43 391.97,-377.23"/>
<polygon fill="black" stroke="black" points="392.06,-373.73 381.87,-376.62 391.64,-380.72 392.06,-373.73"/>
<text text-anchor="middle" x="1210" y="-413.8" font-family="Times,serif" font-size="14.00">frozenset({&#39;blue&#39;})</text>
</g>
<!-- 2 -->
<g id="node4" class="node">
<title>2</title>
<ellipse fill="none" stroke="black" cx="904" cy="-18" rx="27" ry="18"/>
<text text-anchor="middle" x="904" y="-14.3" font-family="Times,serif" font-size="14.00">2</text>
</g>
<!-- 0&#45;&gt;2 -->
<g id="edge2" class="edge">
<title>0&#45;&gt;2</title>
<path fill="none" stroke="black" d="M1741.3,-450.21C1715.82,-437.07 1677,-411.11 1677,-375 1677,-375 1677,-375 1677,-108 1677,-75.59 1657.31,-67.84 1628,-54 1565.75,-24.61 1081.04,-19.89 941.48,-19.14"/>
<polygon fill="black" stroke="black" points="941.3,-15.64 931.29,-19.09 941.27,-22.64 941.3,-15.64"/>
<text text-anchor="middle" x="1751.5" y="-239.8" font-family="Times,serif" font-size="14.00">frozenset({&#39;yellow&#39;})</text>
</g>
<!-- 0&#45;&gt;2 -->
<g id="edge3" class="edge">
<title>0&#45;&gt;2</title>
<path fill="none" stroke="black" d="M1784.7,-450.21C1810.18,-437.07 1849,-411.11 1849,-375 1849,-375 1849,-375 1849,-108 1849,-15.14 1116.44,-16.81 941.29,-18.53"/>
<polygon fill="black" stroke="black" points="941.23,-15.03 931.26,-18.64 941.3,-22.03 941.23,-15.03"/>
<text text-anchor="middle" x="1912.5" y="-239.8" font-family="Times,serif" font-size="14.00">frozenset({&#39;red&#39;})</text>
</g>
<!-- 0&#45;&gt;2 -->
<g id="edge14" class="edge">
<title>0&#45;&gt;2</title>
<path fill="none" stroke="black" d="M1789.16,-456.26C1850.6,-446.75 1999,-419.2 1999,-375 1999,-375 1999,-375 1999,-108 1999,-4.3 1874.73,-68.16 1772,-54 1607.84,-31.38 1085.92,-21.8 941.41,-19.55"/>
<polygon fill="black" stroke="black" points="941.33,-16.04 931.28,-19.39 941.22,-23.04 941.33,-16.04"/>
<text text-anchor="middle" x="2071.5" y="-239.8" font-family="Times,serif" font-size="14.00">frozenset({&#39;green&#39;})</text>
</g>
<!-- 1&#45;&gt;1 -->
<g id="edge10" class="edge">
<title>1&#45;&gt;1</title>
<path fill="none" stroke="black" d="M379.53,-381.75C390.51,-382.49 400,-379.91 400,-374 400,-370.03 395.72,-367.56 389.57,-366.59"/>
<polygon fill="black" stroke="black" points="389.65,-363.09 379.53,-366.25 389.41,-370.09 389.65,-363.09"/>
<text text-anchor="middle" x="439" y="-370.3" font-family="Times,serif" font-size="14.00">frozenset()</text>
</g>
<!-- 1&#45;&gt;2 -->
<g id="edge9" class="edge">
<title>1&#45;&gt;2</title>
<path fill="none" stroke="black" d="M328.03,-372.31C245.18,-369.48 0,-355.41 0,-288 0,-288 0,-288 0,-108 0,-19.42 696.34,-17.77 866.72,-18.69"/>
<polygon fill="black" stroke="black" points="866.92,-22.19 876.95,-18.75 866.97,-15.19 866.92,-22.19"/>
<text text-anchor="middle" x="74.5" y="-196.3" font-family="Times,serif" font-size="14.00">frozenset({&#39;yellow&#39;})</text>
</g>
<!-- 1&#45;&gt;2 -->
<g id="edge17" class="edge">
<title>1&#45;&gt;2</title>
<path fill="none" stroke="black" d="M328.06,-371.57C280.13,-367.41 185,-351.19 185,-288 185,-288 185,-288 185,-108 185,-38.67 718.33,-22.74 866.32,-19.66"/>
<polygon fill="black" stroke="black" points="866.76,-23.15 876.69,-19.45 866.62,-16.15 866.76,-23.15"/>
<text text-anchor="middle" x="252" y="-196.3" font-family="Times,serif" font-size="14.00">frozenset({&#39;blue&#39;})</text>
</g>
<!-- 1&#45;&gt;2 -->
<g id="edge20" class="edge">
<title>1&#45;&gt;2</title>
<path fill="none" stroke="black" d="M355,-355.74C355,-338.57 355,-311.46 355,-288 355,-288 355,-288 355,-108 355,-94.03 444.63,-65.64 500,-54 632.7,-26.11 794.42,-20.37 866.37,-19.24"/>
<polygon fill="black" stroke="black" points="866.77,-22.74 876.72,-19.1 866.67,-15.74 866.77,-22.74"/>
<text text-anchor="middle" x="427.5" y="-196.3" font-family="Times,serif" font-size="14.00">frozenset({&#39;green&#39;})</text>
</g>
<!-- 3 -->
<g id="node5" class="node">
<title>3</title>
<ellipse fill="none" stroke="black" cx="566" cy="-287" rx="27" ry="18"/>
<text text-anchor="middle" x="566" y="-283.3" font-family="Times,serif" font-size="14.00">3</text>
</g>
<!-- 1&#45;&gt;3 -->
<g id="edge21" class="edge">
<title>1&#45;&gt;3</title>
<path fill="none" stroke="black" d="M377.58,-363.9C415.16,-348.77 490.65,-318.35 533.8,-300.97"/>
<polygon fill="black" stroke="black" points="535.29,-304.14 543.26,-297.16 532.68,-297.65 535.29,-304.14"/>
<text text-anchor="middle" x="536.5" y="-326.8" font-family="Times,serif" font-size="14.00">frozenset({&#39;red&#39;})</text>
</g>
<!-- 2&#45;&gt;2 -->
<g id="edge11" class="edge">
<title>2&#45;&gt;2</title>
<path fill="none" stroke="black" d="M931.24,-19.57C941.02,-19.61 949,-19.08 949,-18 949,-17.34 946.04,-16.89 941.51,-16.64"/>
<polygon fill="black" stroke="black" points="941.31,-13.14 931.24,-16.43 941.16,-20.14 941.31,-13.14"/>
<text text-anchor="middle" x="1016" y="-14.3" font-family="Times,serif" font-size="14.00">frozenset({&#39;blue&#39;})</text>
</g>
<!-- 2&#45;&gt;2 -->
<g id="edge12" class="edge">
<title>2&#45;&gt;2</title>
<path fill="none" stroke="black" d="M930.91,-20.02C982.18,-22.03 1083,-21.36 1083,-18 1083,-14.85 994.39,-14.06 941.06,-15.63"/>
<polygon fill="black" stroke="black" points="940.78,-12.14 930.91,-15.98 941.02,-19.13 940.78,-12.14"/>
<text text-anchor="middle" x="1155.5" y="-14.3" font-family="Times,serif" font-size="14.00">frozenset({&#39;green&#39;})</text>
</g>
<!-- 2&#45;&gt;2 -->
<g id="edge24" class="edge">
<title>2&#45;&gt;2</title>
<path fill="none" stroke="black" d="M930.92,-20.34C1010.65,-24.17 1228,-23.39 1228,-18 1228,-12.83 1027.7,-11.9 941.13,-15.23"/>
<polygon fill="black" stroke="black" points="940.76,-11.74 930.92,-15.66 941.06,-18.73 940.76,-11.74"/>
<text text-anchor="middle" x="1267" y="-14.3" font-family="Times,serif" font-size="14.00">frozenset()</text>
</g>
<!-- 2&#45;&gt;2 -->
<g id="edge28" class="edge">
<title>2&#45;&gt;2</title>
<path fill="none" stroke="black" d="M930.75,-20.76C1023.48,-26.27 1306,-25.35 1306,-18 1306,-10.9 1042.47,-9.8 940.9,-14.7"/>
<polygon fill="black" stroke="black" points="940.55,-11.22 930.75,-15.24 940.92,-18.21 940.55,-11.22"/>
<text text-anchor="middle" x="1369.5" y="-14.3" font-family="Times,serif" font-size="14.00">frozenset({&#39;red&#39;})</text>
</g>
<!-- 2&#45;&gt;2 -->
<g id="edge30" class="edge">
<title>2&#45;&gt;2</title>
<path fill="none" stroke="black" d="M930.65,-21C1041.76,-28.38 1433,-27.38 1433,-18 1433,-8.88 1063.61,-7.68 940.75,-14.4"/>
<polygon fill="black" stroke="black" points="940.42,-10.91 930.65,-15 940.84,-17.9 940.42,-10.91"/>
<text text-anchor="middle" x="1507.5" y="-14.3" font-family="Times,serif" font-size="14.00">frozenset({&#39;yellow&#39;})</text>
</g>
<!-- 3&#45;&gt;2 -->
<g id="edge6" class="edge">
<title>3&#45;&gt;2</title>
<path fill="none" stroke="black" d="M558.25,-269.4C545.56,-242.92 520.15,-193.01 504,-182 462.18,-153.49 370.14,-193.09 395,-149 435.05,-77.95 474.62,-79.78 552,-54 609.66,-34.79 788.6,-24.36 866.79,-20.62"/>
<polygon fill="black" stroke="black" points="867.31,-24.1 877.14,-20.14 866.98,-17.11 867.31,-24.1"/>
<text text-anchor="middle" x="469.5" y="-152.8" font-family="Times,serif" font-size="14.00">frozenset({&#39;yellow&#39;})</text>
</g>
<!-- 3&#45;&gt;2 -->
<g id="edge7" class="edge">
<title>3&#45;&gt;2</title>
<path fill="none" stroke="black" d="M561.75,-268.97C555.96,-242.03 548.29,-188.57 567,-149 595.19,-89.38 620.92,-81.21 681,-54 742.11,-26.33 821.19,-20.01 866.9,-18.87"/>
<polygon fill="black" stroke="black" points="867.01,-22.37 876.94,-18.69 866.88,-15.37 867.01,-22.37"/>
<text text-anchor="middle" x="630.5" y="-152.8" font-family="Times,serif" font-size="14.00">frozenset({&#39;red&#39;})</text>
</g>
<!-- 3&#45;&gt;2 -->
<g id="edge25" class="edge">
<title>3&#45;&gt;2</title>
<path fill="none" stroke="black" d="M582.64,-272.52C608.36,-251.19 658.53,-207.56 694,-164 730.9,-118.69 717.62,-86.76 766,-54 796.17,-33.57 837.34,-25.07 866.85,-21.52"/>
<polygon fill="black" stroke="black" points="867.58,-24.97 877.15,-20.43 866.84,-18.01 867.58,-24.97"/>
<text text-anchor="middle" x="771" y="-152.8" font-family="Times,serif" font-size="14.00">frozenset({&#39;blue&#39;})</text>
</g>
<!-- 3&#45;&gt;3 -->
<g id="edge13" class="edge">
<title>3&#45;&gt;3</title>
<path fill="none" stroke="black" d="M590.53,-294.75C601.51,-295.49 611,-292.91 611,-287 611,-283.03 606.72,-280.56 600.57,-279.59"/>
<polygon fill="black" stroke="black" points="600.65,-276.09 590.53,-279.25 600.41,-283.09 600.65,-276.09"/>
<text text-anchor="middle" x="650" y="-283.3" font-family="Times,serif" font-size="14.00">frozenset()</text>
</g>
<!-- 4 -->
<g id="node6" class="node">
<title>4</title>
<ellipse fill="none" stroke="black" cx="911" cy="-200" rx="27" ry="18"/>
<text text-anchor="middle" x="911" y="-196.3" font-family="Times,serif" font-size="14.00">4</text>
</g>
<!-- 3&#45;&gt;4 -->
<g id="edge8" class="edge">
<title>3&#45;&gt;4</title>
<path fill="none" stroke="black" d="M591.67,-281.01C624.05,-274.61 681.36,-262.9 730,-251 781.45,-238.42 840.49,-221.67 876.77,-211.11"/>
<polygon fill="black" stroke="black" points="878.2,-214.34 886.82,-208.17 876.24,-207.62 878.2,-214.34"/>
<text text-anchor="middle" x="856.5" y="-239.8" font-family="Times,serif" font-size="14.00">frozenset({&#39;green&#39;})</text>
</g>
<!-- 4&#45;&gt;2 -->
<g id="edge5" class="edge">
<title>4&#45;&gt;2</title>
<path fill="none" stroke="black" d="M897.21,-183.91C885.91,-172.51 868.91,-157.43 851,-149 811.73,-130.51 782.72,-164.4 755,-131 742.51,-115.95 744.43,-103.45 755,-87 779.7,-48.58 832.07,-31.6 867.66,-24.28"/>
<polygon fill="black" stroke="black" points="868.49,-27.69 877.67,-22.39 867.19,-20.81 868.49,-27.69"/>
<text text-anchor="middle" x="822" y="-105.3" font-family="Times,serif" font-size="14.00">frozenset({&#39;blue&#39;})</text>
</g>
<!-- 4&#45;&gt;2 -->
<g id="edge16" class="edge">
<title>4&#45;&gt;2</title>
<path fill="none" stroke="black" d="M905.85,-181.99C898.32,-154.86 885.92,-100.14 893,-54 893.42,-51.26 894.02,-48.44 894.71,-45.65"/>
<polygon fill="black" stroke="black" points="898.13,-46.42 897.57,-35.84 891.41,-44.47 898.13,-46.42"/>
<text text-anchor="middle" x="966.5" y="-105.3" font-family="Times,serif" font-size="14.00">frozenset({&#39;green&#39;})</text>
</g>
<!-- 4&#45;&gt;2 -->
<g id="edge31" class="edge">
<title>4&#45;&gt;2</title>
<path fill="none" stroke="black" d="M936.58,-194.13C967.96,-186.64 1019.85,-168.97 1043,-131 1053.18,-114.3 1055.8,-101.78 1043,-87 1006.25,-44.58 960.18,-106.03 918,-69 911.45,-63.25 907.85,-54.71 905.91,-46.31"/>
<polygon fill="black" stroke="black" points="909.34,-45.63 904.27,-36.33 902.43,-46.76 909.34,-45.63"/>
<text text-anchor="middle" x="1114.5" y="-105.3" font-family="Times,serif" font-size="14.00">frozenset({&#39;red&#39;})</text>
</g>
<!-- 4&#45;&gt;4 -->
<g id="edge27" class="edge">
<title>4&#45;&gt;4</title>
<path fill="none" stroke="black" d="M935.53,-207.75C946.51,-208.49 956,-205.91 956,-200 956,-196.03 951.72,-193.56 945.57,-192.59"/>
<polygon fill="black" stroke="black" points="945.65,-189.09 935.53,-192.25 945.41,-196.09 945.65,-189.09"/>
<text text-anchor="middle" x="995" y="-196.3" font-family="Times,serif" font-size="14.00">frozenset()</text>
</g>
<!-- 5 -->
<g id="node7" class="node">
<title>5</title>
<ellipse fill="none" stroke="black" cx="1259" cy="-109" rx="18" ry="18"/>
<ellipse fill="none" stroke="black" cx="1259" cy="-109" rx="22" ry="22"/>
<text text-anchor="middle" x="1259" y="-105.3" font-family="Times,serif" font-size="14.00">5</text>
</g>
<!-- 4&#45;&gt;5 -->
<g id="edge15" class="edge">
<title>4&#45;&gt;5</title>
<path fill="none" stroke="black" d="M937.9,-196.54C993.23,-190.76 1122.98,-173.46 1223,-131 1225.9,-129.77 1228.86,-128.35 1231.77,-126.83"/>
<polygon fill="black" stroke="black" points="1233.74,-129.75 1240.78,-121.83 1230.34,-123.63 1233.74,-129.75"/>
<text text-anchor="middle" x="1248.5" y="-152.8" font-family="Times,serif" font-size="14.00">frozenset({&#39;yellow&#39;})</text>
</g>
<!-- 5&#45;&gt;2 -->
<g id="edge18" class="edge">
<title>5&#45;&gt;2</title>
<path fill="none" stroke="black" d="M1241.45,-95.57C1235.81,-92.2 1229.37,-88.94 1223,-87 1162.29,-68.51 993.12,-100.44 938,-69 928.29,-63.46 920.77,-53.88 915.31,-44.57"/>
<polygon fill="black" stroke="black" points="918.29,-42.72 910.52,-35.52 912.1,-46 918.29,-42.72"/>
<text text-anchor="middle" x="1012.5" y="-57.8" font-family="Times,serif" font-size="14.00">frozenset({&#39;yellow&#39;})</text>
</g>
<!-- 5&#45;&gt;2 -->
<g id="edge19" class="edge">
<title>5&#45;&gt;2</title>
<path fill="none" stroke="black" d="M1240.96,-95.72C1235.4,-92.44 1229.13,-89.19 1223,-87 1175.11,-69.9 1157.45,-87.29 1110,-69 1098.61,-64.61 1098.32,-58.57 1087,-54 1038.6,-34.48 978.53,-25.66 940.71,-21.81"/>
<polygon fill="black" stroke="black" points="940.95,-18.32 930.67,-20.85 940.29,-25.28 940.95,-18.32"/>
<text text-anchor="middle" x="1173.5" y="-57.8" font-family="Times,serif" font-size="14.00">frozenset({&#39;red&#39;})</text>
</g>
<!-- 5&#45;&gt;2 -->
<g id="edge22" class="edge">
<title>5&#45;&gt;2</title>
<path fill="none" stroke="black" d="M1255.84,-87.11C1252.95,-75.49 1247.44,-61.84 1237,-54 1191.17,-19.57 1018.31,-17.42 941.35,-18.24"/>
<polygon fill="black" stroke="black" points="941.11,-14.75 931.15,-18.38 941.2,-21.74 941.11,-14.75"/>
<text text-anchor="middle" x="1320.5" y="-57.8" font-family="Times,serif" font-size="14.00">frozenset({&#39;green&#39;})</text>
</g>
<!-- 5&#45;&gt;2 -->
<g id="edge23" class="edge">
<title>5&#45;&gt;2</title>
<path fill="none" stroke="black" d="M1280.96,-106.78C1328.12,-103.43 1432.07,-91.65 1397,-54 1366.15,-20.88 1051.32,-18.58 941.52,-18.79"/>
<polygon fill="black" stroke="black" points="941.25,-15.29 931.26,-18.82 941.27,-22.29 941.25,-15.29"/>
<text text-anchor="middle" x="1471" y="-57.8" font-family="Times,serif" font-size="14.00">frozenset({&#39;blue&#39;})</text>
</g>
<!-- 5&#45;&gt;2 -->
<g id="edge29" class="edge">
<title>5&#45;&gt;2</title>
<path fill="none" stroke="black" d="M1281.04,-107.3C1353.71,-104.62 1579.01,-93.09 1542,-54 1521.26,-32.09 1074.79,-22.14 941.35,-19.65"/>
<polygon fill="black" stroke="black" points="941.27,-16.15 931.21,-19.46 941.14,-23.14 941.27,-16.15"/>
<text text-anchor="middle" x="1585" y="-57.8" font-family="Times,serif" font-size="14.00">frozenset()</text>
</g>
</g>
</svg>
