<?xml version="1.0" encoding="UTF-8" standalone="no"?>
<!DOCTYPE svg PUBLIC "-//W3C//DTD SVG 1.1//EN"
 "http://www.w3.org/Graphics/SVG/1.1/DTD/svg11.dtd">
<!-- Generated by graphviz version 2.40.1 (20161225.0304)
 -->
<!-- Title: %3 Pages: 1 -->
<svg width="472pt" height="386pt"
 viewBox="0.00 0.00 471.90 386.00" xmlns="http://www.w3.org/2000/svg" xmlns:xlink="http://www.w3.org/1999/xlink">
<g id="graph0" class="graph" transform="scale(1 1) rotate(0) translate(4 382)">
<title>%3</title>
<polygon fill="#ffffff" stroke="transparent" points="-4,4 -4,-382 467.9012,-382 467.9012,4 -4,4"/>
<!-- fake -->
<g id="node1" class="node">
<title>fake</title>
</g>
<!-- 0 -->
<g id="node2" class="node">
<title>0</title>
<ellipse fill="none" stroke="#000000" cx="250.9012" cy="-287" rx="27" ry="18"/>
<text text-anchor="middle" x="250.9012" y="-283.3" font-family="Times,serif" font-size="14.00" fill="#000000">0</text>
</g>
<!-- fake&#45;&gt;0 -->
<g id="edge1" class="edge">
<title>fake&#45;&gt;0</title>
<path fill="none" stroke="#000000" stroke-width="2" d="M250.9012,-341.9551C250.9012,-333.8828 250.9012,-324.1764 250.9012,-315.1817"/>
<polygon fill="#000000" stroke="#000000" stroke-width="2" points="254.4013,-315.0903 250.9012,-305.0904 247.4013,-315.0904 254.4013,-315.0903"/>
</g>
<!-- 0&#45;&gt;0 -->
<g id="edge8" class="edge">
<title>0&#45;&gt;0</title>
<path fill="none" stroke="#000000" d="M276.3447,-293.6907C286.929,-294.1521 295.9012,-291.9219 295.9012,-287 295.9012,-283.77 292.0372,-281.6992 286.3893,-280.7876"/>
<polygon fill="#000000" stroke="#000000" points="286.4999,-277.289 276.3447,-280.3093 286.1669,-284.2811 286.4999,-277.289"/>
<text text-anchor="middle" x="325.4012" y="-283.3" font-family="Times,serif" font-size="14.00" fill="#000000">frozenset()</text>
</g>
<!-- 1 -->
<g id="node3" class="node">
<title>1</title>
<ellipse fill="none" stroke="#000000" cx="140.9012" cy="-200" rx="27" ry="18"/>
<text text-anchor="middle" x="140.9012" y="-196.3" font-family="Times,serif" font-size="14.00" fill="#000000">1</text>
</g>
<!-- 0&#45;&gt;1 -->
<g id="edge9" class="edge">
<title>0&#45;&gt;1</title>
<path fill="none" stroke="#000000" d="M233.2278,-273.0219C215.1863,-258.7528 186.999,-236.4592 166.513,-220.2566"/>
<polygon fill="#000000" stroke="#000000" points="168.5453,-217.4016 158.5308,-213.9434 164.2029,-222.892 168.5453,-217.4016"/>
<text text-anchor="middle" x="251.9012" y="-239.8" font-family="Times,serif" font-size="14.00" fill="#000000">frozenset({&#39;blue&#39;})</text>
</g>
<!-- 2 -->
<g id="node4" class="node">
<title>2</title>
<ellipse fill="none" stroke="#000000" cx="115.9012" cy="-18" rx="27" ry="18"/>
<text text-anchor="middle" x="115.9012" y="-14.3" font-family="Times,serif" font-size="14.00" fill="#000000">2</text>
</g>
<!-- 0&#45;&gt;2 -->
<g id="edge7" class="edge">
<title>0&#45;&gt;2</title>
<path fill="none" stroke="#000000" d="M273.9369,-277.5526C285.4092,-271.638 298.399,-262.864 305.9012,-251 353.0716,-176.4052 387.9234,-121.3639 330.9012,-54 319.5408,-40.5792 211.3704,-27.6721 152.9343,-21.6055"/>
<polygon fill="#000000" stroke="#000000" points="153.2822,-18.1229 142.9781,-20.5881 152.5705,-25.0867 153.2822,-18.1229"/>
<text text-anchor="middle" x="410.4012" y="-152.8" font-family="Times,serif" font-size="14.00" fill="#000000">frozenset({&#39;green&#39;})</text>
</g>
<!-- 1&#45;&gt;1 -->
<g id="edge5" class="edge">
<title>1&#45;&gt;1</title>
<path fill="none" stroke="#000000" d="M165.4337,-207.752C176.409,-208.4902 185.9012,-205.9063 185.9012,-200 185.9012,-196.0317 181.6163,-193.5632 175.4755,-192.5944"/>
<polygon fill="#000000" stroke="#000000" points="175.5484,-189.0949 165.4337,-192.248 175.3071,-196.0908 175.5484,-189.0949"/>
<text text-anchor="middle" x="215.4012" y="-196.3" font-family="Times,serif" font-size="14.00" fill="#000000">frozenset()</text>
</g>
<!-- 1&#45;&gt;2 -->
<g id="edge2" class="edge">
<title>1&#45;&gt;2</title>
<path fill="none" stroke="#000000" d="M114.9507,-194.7464C83.7308,-186.8832 32.6798,-168.7431 9.9012,-131 -8.2075,-100.9947 1.0144,-77.6246 26.9012,-54 41.7211,-40.4752 62.282,-31.7099 79.9082,-26.2184"/>
<polygon fill="#000000" stroke="#000000" points="81.2373,-29.4782 89.8815,-23.3522 79.3038,-22.7505 81.2373,-29.4782"/>
<text text-anchor="middle" x="59.9012" y="-105.3" font-family="Times,serif" font-size="14.00" fill="#000000">frozenset({&#39;blue&#39;})</text>
</g>
<!-- 3 -->
<g id="node5" class="node">
<title>3</title>
<ellipse fill="none" stroke="#000000" cx="140.9012" cy="-109" rx="18" ry="18"/>
<ellipse fill="none" stroke="#000000" cx="140.9012" cy="-109" rx="22" ry="22"/>
<text text-anchor="middle" x="140.9012" y="-105.3" font-family="Times,serif" font-size="14.00" fill="#000000">3</text>
</g>
<!-- 1&#45;&gt;3 -->
<g id="edge4" class="edge">
<title>1&#45;&gt;3</title>
<path fill="none" stroke="#000000" d="M140.9012,-181.5848C140.9012,-170.1105 140.9012,-155.0231 140.9012,-141.5774"/>
<polygon fill="#000000" stroke="#000000" points="144.4013,-141.2465 140.9012,-131.2465 137.4013,-141.2466 144.4013,-141.2465"/>
<text text-anchor="middle" x="194.4012" y="-152.8" font-family="Times,serif" font-size="14.00" fill="#000000">frozenset({&#39;green&#39;})</text>
</g>
<!-- 2&#45;&gt;2 -->
<g id="edge3" class="edge">
<title>2&#45;&gt;2</title>
<path fill="none" stroke="#000000" d="M142.6961,-20.6192C152.6816,-20.7051 160.9012,-19.832 160.9012,-18 160.9012,-16.855 157.6904,-16.0846 152.8445,-15.6887"/>
<polygon fill="#000000" stroke="#000000" points="152.7977,-12.1858 142.6961,-15.3808 152.5853,-19.1826 152.7977,-12.1858"/>
<text text-anchor="middle" x="190.4012" y="-14.3" font-family="Times,serif" font-size="14.00" fill="#000000">frozenset()</text>
</g>
<!-- 2&#45;&gt;2 -->
<g id="edge11" class="edge">
<title>2&#45;&gt;2</title>
<path fill="none" stroke="#000000" d="M142.2758,-22.038C174.4216,-24.5277 219.9012,-23.1816 219.9012,-18 219.9012,-13.3446 183.1905,-11.7853 152.4212,-13.3221"/>
<polygon fill="#000000" stroke="#000000" points="152.0356,-9.8394 142.2758,-13.962 152.4763,-16.8255 152.0356,-9.8394"/>
<text text-anchor="middle" x="273.4012" y="-14.3" font-family="Times,serif" font-size="14.00" fill="#000000">frozenset({&#39;green&#39;})</text>
</g>
<!-- 2&#45;&gt;2 -->
<g id="edge12" class="edge">
<title>2&#45;&gt;2</title>
<path fill="none" stroke="#000000" d="M142.4221,-22.5238C201.3102,-28.1827 326.9012,-26.6748 326.9012,-18 326.9012,-9.7996 214.6711,-8.0036 152.6504,-12.6121"/>
<polygon fill="#000000" stroke="#000000" points="152.0919,-9.1467 142.4221,-13.4762 152.6812,-16.1219 152.0919,-9.1467"/>
<text text-anchor="middle" x="376.9012" y="-14.3" font-family="Times,serif" font-size="14.00" fill="#000000">frozenset({&#39;blue&#39;})</text>
</g>
<!-- 3&#45;&gt;2 -->
<g id="edge6" class="edge">
<title>3&#45;&gt;2</title>
<path fill="none" stroke="#000000" d="M122.7798,-96.4846C117.2247,-93.0493 110.9727,-89.5678 104.9012,-87 75.3153,-74.4871 54.5852,-94.3859 34.9012,-69 19.1885,-48.7357 51.8467,-34.3711 80.2725,-26.1565"/>
<polygon fill="#000000" stroke="#000000" points="81.3251,-29.4976 90.0642,-23.5077 79.4972,-22.7404 81.3251,-29.4976"/>
<text text-anchor="middle" x="64.4012" y="-57.8" font-family="Times,serif" font-size="14.00" fill="#000000">frozenset()</text>
</g>
<!-- 3&#45;&gt;2 -->
<g id="edge10" class="edge">
<title>3&#45;&gt;2</title>
<path fill="none" stroke="#000000" d="M127.5199,-91.2127C123.2911,-84.5892 119.1394,-76.7831 116.9012,-69 114.8385,-61.8269 114.0255,-53.8491 113.8631,-46.3739"/>
<polygon fill="#000000" stroke="#000000" points="117.364,-46.3252 114.004,-36.2773 110.3647,-46.2274 117.364,-46.3252"/>
<text text-anchor="middle" x="170.4012" y="-57.8" font-family="Times,serif" font-size="14.00" fill="#000000">frozenset({&#39;green&#39;})</text>
</g>
<!-- 3&#45;&gt;2 -->
<g id="edge13" class="edge">
<title>3&#45;&gt;2</title>
<path fill="none" stroke="#000000" d="M162.5587,-104.2039C192.8579,-96.4603 242.2463,-79.4524 223.9012,-54 215.2556,-42.0049 179.8226,-31.7335 151.8685,-25.2685"/>
<polygon fill="#000000" stroke="#000000" points="152.4934,-21.822 141.9715,-23.0628 150.9707,-28.6544 152.4934,-21.822"/>
<text text-anchor="middle" x="276.9012" y="-57.8" font-family="Times,serif" font-size="14.00" fill="#000000">frozenset({&#39;blue&#39;})</text>
</g>
</g>
</svg>
